:SAMPLES-PER-SECOND 30
:FULLY-SPECIFIED
:DEGREES
1068
root  42.4925 38.7107 36.8169 -77.424 -83.3785 70.3456
RightUpLeg  -16.7468 -10.0432 -12.2426
RightLeg  34.6062 -2.65229 -2.23047
RightFoot  -4.68853 -0.686623 11.2344
RightToes  1.33877e-009 0 -3.6325e-017
Spine  12.4821 -0.0989211 -5.53172
Spine1  3.45675 -0.897831 -0.852447
HEad  -20.9853 -12.6753 11.8597
LeftShoulder1  0.442399 2.25954 -29.4455
LeftArm  -2.76123 0.854488 -41.9269
LeftForeArm  24.3368 -6.71686 -9.55229
LeftHand  0.357132 10.4886 8.98617
RightShoulder  -0.4999 -5.08272 24.7972
RightArm  13.2727 -0.440055 51.9374
RightForeArm  13.923 37.5825 7.77761
RightHand  -0.533709 5.41072 -6.04499
LeftUpLeg  3.19248 5.30345 -7.96436
LeftLeg  14.2712 -0.379302 -1.31911
LeftFoot  -11.1918 0.0603114 5.36754
LeftToes  -1.45701e-009 4.75788e-011 -4.21586e-011
1069
root  41.5353 38.7015 36.8661 -75.3884 -83.1064 68.0512
RightUpLeg  -17.0169 -13.3877 -11.1852
RightLeg  25.4159 -1.23726 -0.927502
RightFoot  -4.09381 -0.724403 10.9624
RightToes  1.33877e-009 0 -3.6325e-017
Spine  11.9603 -0.746468 -5.688
Spine1  4.15267 -1.57166 -0.213736
HEad  -21.0475 -13.239 12.7041
LeftShoulder1  0.263341 2.77157 -29.8115
LeftArm  -2.40106 -1.22115 -41.3238
LeftForeArm  20.4919 -7.38746 -9.59288
LeftHand  0.456248 10.5957 10.8578
RightShoulder  -0.340088 -4.6145 23.5691
RightArm  12.5709 0.145251 51.6781
RightForeArm  12.0123 35.9039 7.418
RightHand  -0.580115 5.17528 -6.68009
LeftUpLeg  5.37281 5.15517 -8.24769
LeftLeg  13.6942 -0.308264 -0.963726
LeftFoot  -12.1389 0.110909 5.3609
LeftToes  -1.45701e-009 4.75788e-011 -4.21586e-011
1070
root  40.5132 38.6032 36.8704 -83.8862 -82.9632 76.2634
RightUpLeg  -16.7552 -15.7118 -9.7697
RightLeg  15.3722 0.113148 0.118017
RightFoot  -3.67909 -0.795691 11.4663
RightToes  1.33877e-009 0 -3.6325e-017
Spine  11.3211 -0.519693 -5.97816
Spine1  4.75545 -1.33686 0.292749
HEad  -21.1668 -14.1462 12.5953
LeftShoulder1  0.332956 2.57769 -29.9283
LeftArm  -3.22171 -2.63902 -40.947
LeftForeArm  20.3047 -7.82545 -9.11591
LeftHand  0.179605 8.20545 8.57554
RightShoulder  -0.275598 -4.41226 23.1048
RightArm  12.2975 0.880597 50.5595
RightForeArm  10.2257 32.5799 6.62337
RightHand  -0.479269 5.77188 -5.29426
LeftUpLeg  7.56772 5.29527 -8.63147
LeftLeg  13.3834 0.728509 -0.69521
LeftFoot  -13.5307 0.183013 5.36672
LeftToes  -1.45701e-009 4.75788e-011 -4.21586e-011
1071
root  39.4392 38.4678 36.8423 -89.4368 -82.5245 81.3494
RightUpLeg  -15.1889 -15.4539 -9.60923
RightLeg  5.23125 -2.33282 1.63663
RightFoot  -3.20013 -0.904029 12.3522
RightToes  1.33877e-009 0 -3.6325e-017
Spine  11.4848 -0.571584 -5.50355
Spine1  4.4052 -1.05635 -0.658246
HEad  -20.7181 -15.279 13.3146
LeftShoulder1  0.464941 2.18186 -29.0222
LeftArm  -3.31343 -3.17166 -40.8468
LeftForeArm  19.8293 -8.76532 -8.73482
LeftHand  0.0253836 6.43016 6.25521
RightShoulder  -0.352629 -4.63783 24.0831
RightArm  12.9968 1.36647 48.7933
RightForeArm  7.35748 28.6221 5.78162
RightHand  -0.54685 5.20068 -6.29336
LeftUpLeg  10.1936 5.33757 -9.11667
LeftLeg  12.7605 1.41202 -0.447914
LeftFoot  -14.9463 0.243734 4.87176
LeftToes  -1.45701e-009 4.75788e-011 -4.21586e-011
1072
root  38.2754 38.2933 36.7687 -95.6247 -82.2793 87.0242
RightUpLeg  -13.3249 -11.7925 -9.98915
RightLeg  -2.92256 -8.42866 3.18592
RightFoot  -3.04111 -0.931843 12.5092
RightToes  1.33877e-009 0 -3.6325e-017
Spine  11.391 -0.62621 -5.23366
Spine1  4.26903 -0.981101 -0.862438
HEad  -20.9447 -15.2612 13.6684
LeftShoulder1  0.392154 2.38749 -29.0112
LeftArm  -3.11541 -3.87482 -40.7099
LeftForeArm  19.7047 -9.37791 -8.58449
LeftHand  0.0339029 6.55418 6.03884
RightShoulder  -0.329855 -4.5543 24.3007
RightArm  13.6492 1.76038 47.8735
RightForeArm  4.36784 23.4607 4.93206
RightHand  -0.494129 4.58716 -6.0604
LeftUpLeg  13.0276 5.70182 -9.14709
LeftLeg  12.1603 1.83814 -0.394403
LeftFoot  -16.3764 0.310705 4.82223
LeftToes  -1.45701e-009 4.75788e-011 -4.21586e-011
1073
root  37.0561 38.0152 36.6372 -95.1448 -81.828 86.5324
RightUpLeg  -13.262 -11.0171 -9.51977
RightLeg  -5.36066 -12.2109 3.0248
RightFoot  -4.39407 -0.791695 12.3987
RightToes  1.33877e-009 0 -3.6325e-017
Spine  10.3162 -0.87986 -5.86535
Spine1  4.75087 -1.34562 -0.306545
HEad  -21.524 -14.912 13.7225
LeftShoulder1  0.385448 2.40808 -29.0894
LeftArm  -1.28602 -4.18953 -40.6993
LeftForeArm  17.7357 -10.6584 -8.70319
LeftHand  0.0710578 6.89917 7.30252
RightShoulder  -0.285293 -4.42003 23.9405
RightArm  12.1477 2.24325 47.4828
RightForeArm  3.4962 16.9149 4.81528
RightHand  -0.45252 5.51536 -5.11771
LeftUpLeg  14.8503 5.99829 -9.23105
LeftLeg  12.7656 1.58408 -0.302722
LeftFoot  -18.2962 0.40084 4.78467
LeftToes  -1.45701e-009 4.75788e-011 -4.21586e-011
